{
  "title": "Sucker Punch (2011) DVDRip XviD-MAX",
  "uid": 6473585,
  "size": 1323131761,
  "categoryP": "video",
  "categoryS": "movies",
  "magnet": "?xt=urn:btih:8107e5aa403f00ec384c4ce03187d25fff578280&amp;dn=Sucker+Punch+%282011%29+DVDRip+XviD-MAX&amp;tr=udp%3A%2F%2Ftracker.openbittorrent.com%3A80&amp;tr=udp%3A%2F%2Fopen.demonii.com%3A1337&amp;tr=udp%3A%2F%2Ftracker.coppersurfer.tk%3A6969&amp;tr=udp%3A%2F%2Fexodus.desync.com%3A6969",
  "seeders": 48,
  "leechers": 9,
  "uploader": "extremezone",
  "files": -1,
  "time": 1308231083,
  "description": " &lt;a href=&quot;http://leetleech.org/images/94012416899845090275.jpg&quot; rel=&quot;nofollow&quot; target=&quot;_NEW&quot;&gt;http://leetleech.org/images/94012416899845090275.jpg&lt;/a&gt;\n\nScreens:\n &lt;a href=&quot;\nhttp://leetleech.org/images/71954851032228467035.jpg&quot; rel=&quot;nofollow&quot; target=&quot;_NEW&quot;&gt;\nhttp://leetleech.org/images/71954851032228467035.jpg&lt;/a&gt;\n &lt;a href=&quot;\nhttp://leetleech.org/images/71166626358138902849.jpg&quot; rel=&quot;nofollow&quot; target=&quot;_NEW&quot;&gt;\nhttp://leetleech.org/images/71166626358138902849.jpg&lt;/a&gt;\n &lt;a href=&quot;\nhttp://leetleech.org/images/98168560869597517450.jpg&quot; rel=&quot;nofollow&quot; target=&quot;_NEW&quot;&gt;\nhttp://leetleech.org/images/98168560869597517450.jpg&lt;/a&gt;\n &lt;a href=&quot;\nhttp://leetleech.org/images/03849225334642185349.jpg&quot; rel=&quot;nofollow&quot; target=&quot;_NEW&quot;&gt;\nhttp://leetleech.org/images/03849225334642185349.jpg&lt;/a&gt;\n &lt;a href=&quot;\nhttp://leetleech.org/images/15598241880527981208.jpg&quot; rel=&quot;nofollow&quot; target=&quot;_NEW&quot;&gt;\nhttp://leetleech.org/images/15598241880527981208.jpg&lt;/a&gt;\n\nAlternative:\n &lt;a href=&quot;\nhttp://www.postimg.com/image/40000/photo-39042.jpg&quot; rel=&quot;nofollow&quot; target=&quot;_NEW&quot;&gt;\nhttp://www.postimg.com/image/40000/photo-39042.jpg&lt;/a&gt;\n &lt;a href=&quot;\nhttp://www.postimg.com/image/40000/photo-39043.jpg&quot; rel=&quot;nofollow&quot; target=&quot;_NEW&quot;&gt;\nhttp://www.postimg.com/image/40000/photo-39043.jpg&lt;/a&gt;\n &lt;a href=&quot;\nhttp://www.postimg.com/image/40000/photo-39044.jpg&quot; rel=&quot;nofollow&quot; target=&quot;_NEW&quot;&gt;\nhttp://www.postimg.com/image/40000/photo-39044.jpg&lt;/a&gt;\n &lt;a href=&quot;\nhttp://www.postimg.com/image/40000/photo-39045.jpg&quot; rel=&quot;nofollow&quot; target=&quot;_NEW&quot;&gt;\nhttp://www.postimg.com/image/40000/photo-39045.jpg&lt;/a&gt;\n &lt;a href=&quot;\nhttp://www.postimg.com/image/40000/photo-39046.jpg&quot; rel=&quot;nofollow&quot; target=&quot;_NEW&quot;&gt;\nhttp://www.postimg.com/image/40000/photo-39046.jpg&lt;/a&gt;\n\nScreenCaps:\n &lt;a href=&quot;\nhttp://www.postimg.com/image/40000/photo-39048.jpg&quot; rel=&quot;nofollow&quot; target=&quot;_NEW&quot;&gt;\nhttp://www.postimg.com/image/40000/photo-39048.jpg&lt;/a&gt;\n\nSucker Punch (2011) DVDRip\nFormat                           : AVI\nFormat/Info                      : Audio Video Interleave\nFormat profile                   : OpenDML\nFile size                        : 1.22 GiB\nDuration                         : 1h 49mn\nOverall bit rate                 : 1 585 Kbps\nWriting application              : VirtualDubMod 1.5.10.2 (build 2542/release)\nWriting library                  : VirtualDubMod build 2542/release\nOriginal source form             : MAX TORRENTZ\nCopyright                        : SIGISMUNT\n\nVideo\nID                               : 0\nFormat                           : MPEG-4 Visual\nFormat profile                   : AdvancedSimple@L5\nFormat settings, BVOP            : Yes\nFormat settings, QPel            : No\nFormat settings, GMC             : No warppoints\nFormat settings, Matrix          : Default (MPEG)\nCodec ID                         : XVID\nCodec ID/Hint                    : XviD\nDuration                         : 1h 49mn\nBit rate                         : 1 390 Kbps\nWidth                            : 640 pixels\nHeight                           : 272 pixels\nDisplay aspect ratio             : 2.35:1\nFrame rate                       : 23.976 fps\nResolution                       : 24 bits\nColorimetry                      : 4:2:0\nScan type                        : Progressive\nBits/(Pixel*Frame)               : 0.333\nStream size                      : 1.07 GiB (88%)\nWriting library                  : XviD 1.2.1 (UTC 2008-12-04)\n\nAudio\nID                               : 1\nFormat                           : MPEG Audio\nFormat version                   : Version 1\nFormat profile                   : Layer 3\nCodec ID                         : 55\nCodec ID/Hint                    : MP3\nDuration                         : 1h 49mn\nBit rate mode                    : Constant\nBit rate                         : 192 Kbps\nChannel(s)                       : 2 channels\nSampling rate                    : 48.0 KHz\nResolution                       : 16 bits\nStream size                      : 151 MiB (12%)\nAlignment                        : Aligned on interleaves\nInterleave, duration             : 544 ms (13.04 video frames)\nInterleave, preload duration     : 216 ms\n &lt;a href=&quot;\nhttp://www.imdb.com/title/tt0978764/&quot; rel=&quot;nofollow&quot; target=&quot;_NEW&quot;&gt;\nhttp://www.imdb.com/title/tt0978764/&lt;/a&gt;\n\nSource: DVDRip-this time i didn't waited for a better source DVDR/x264 to make a\nbigger resolution encode because i have some important things to do these days,\naudio and video it's good,sync is perfect,sample is included\n\nThis release is not seedbox supported,please seed it to the MAX\n\nSucker Punch (2011) DVDRip XviD-MAX Torrent Free Download\n &lt;a href=&quot;\nhttp://thepiratebay.se/user/extremezone/0/7&quot; rel=&quot;nofollow&quot; target=&quot;_NEW&quot;&gt;\nhttp://thepiratebay.se/user/extremezone/0/7&lt;/a&gt;\n\nHow To Get Your Maxspeed (uTorrent)\n\nTorrent Client - Preferences - Bandwidth - Number of connections - Set aprox. 500 for each \nTorrent Client - Preferences - BiTorrent - Protocol Encryption - Forced\nBandwidth Allocation - High (Set download/upload limit - Unlimited)\nStop Other Active Torrents - Start downloading and wait for connections.\nEnjoy and Seed for at least 1:1 ratio. Don't forget to say thanks/leave reviews.\nBefore downloading you should check/google search sample &quot;release name&quot;&quot;sample&quot;.\nGreets to all actual/future p2p/scene QUALITY groups and affiliate websites.\nDon't trust IMDb robot or bad ratings,always watch some trailers first.\nIgnore stupid comments/fake/mislabeled/no-DVDrips/CAM/TS/RAR uploads.\nPlease spread this release/torrent to your friends/forums/etc.\nIf you need translation subs visit some subtitles sites.\nReport if you see online streaming or other spam links.\nRecommended movie player VLC PLAYER.",
  "parsed": {
    "xt": "urn:btih:8107e5aa403f00ec384c4ce03187d25fff578280",
    "dn": "Sucker Punch (2011) DVDRip XviD-MAX",
    "tr": [
      "udp://exodus.desync.com:6969",
      "udp://open.demonii.com:1337",
      "udp://tracker.coppersurfer.tk:6969",
      "udp://tracker.openbittorrent.com:80"
    ],
    "infoHash": "8107e5aa403f00ec384c4ce03187d25fff578280",
    "infoHashBuffer": {
      "type": "Buffer",
      "data": [
        129,
        7,
        229,
        170,
        64,
        63,
        0,
        236,
        56,
        76,
        76,
        224,
        49,
        135,
        210,
        95,
        255,
        87,
        130,
        128
      ]
    },
    "name": "Sucker Punch (2011) DVDRip XviD-MAX",
    "announce": [
      "udp://exodus.desync.com:6969",
      "udp://open.demonii.com:1337",
      "udp://tracker.coppersurfer.tk:6969",
      "udp://tracker.openbittorrent.com:80"
    ],
    "urlList": []
  },
  "previous": 57,
  "peers": 3,
  "last_updated": "2016-12-25T06:08:33.432Z"
}